#!OML:ASF F:\VICON\USERDATA\INSTALL\rory3\rory3.ASF
:FULLY-SPECIFIED
:DEGREES
1063
root -4.61832 17.7546 11.2859 -9.6163 -50.1214 3.39509
lowerback 8.31785 1.06466 -3.63084
upperback -0.889353 1.06227 0.278499
thorax -5.67521 0.640605 2.19425
lowerneck -22.4918 -6.5688 -11.9783
upperneck 26.4937 -8.46103 10.3506
head 13.7444 -3.61079 4.54106
rclavicle -6.62077e-014 1.27222e-014
rhumerus -37.6947 -11.3545 -79.6439
rradius 36.3972
rwrist 3.9031
rhand -15.0988 9.9192
rfingers 7.12502
rthumb 11.0695 -19.7689
lclavicle -6.62077e-014 1.27222e-014
lhumerus -33.9444 23.9021 67.899
lradius 17.0694
lwrist -14.782
lhand -18.5309 27.9788
lfingers 7.12502
lthumb 7.75792 57.8164
rfemur -5.01269 3.4436 16.1712
rtibia 48.0158
rfoot -18.9041 4.56727
rtoes -9.18323
lfemur -0.937225 -5.22128 -21.0152
ltibia 17.4571
lfoot -12.166 -13.9327
ltoes -15.5523
1064
root -4.62381 17.7535 11.2432 -9.61546 -49.772 3.34143
lowerback 8.27852 1.08336 -3.6857
upperback -0.964534 1.07912 0.226693
thorax -5.73335 0.651871 2.16854
lowerneck -22.3675 -6.61994 -12.2224
upperneck 26.438 -8.47919 10.4343
head 13.7159 -3.6363 4.61288
rclavicle 1.20675e-013 -2.18663e-015
rhumerus -37.8268 -11.5952 -79.5881
rradius 36.0735
rwrist 4.15735
rhand -15.1057 9.66758
rfingers 7.12502
rthumb 11.0628 -20.0209
lclavicle 1.20675e-013 -2.18663e-015
lhumerus -34.3335 23.7328 67.8321
lradius 17.3106
lwrist -14.239
lhand -18.7716 27.7954
lfingers 7.12502
lthumb 7.5256 57.6415
rfemur -4.37707 3.77122 16.2725
rtibia 47.6284
rfoot -18.8152 5.58601
rtoes -8.9418
lfemur -1.03954 -5.39831 -20.8938
ltibia 17.4877
lfoot -12.1124 -14.1262
ltoes -15.8254
1065
root -4.62872 17.749 11.1998 -9.69579 -49.5259 3.36878
lowerback 8.28084 1.1332 -3.80612
upperback -1.02512 1.12897 0.173499
thorax -5.80351 0.681423 2.17337
lowerneck -22.413 -6.70275 -12.3871
upperneck 26.4851 -8.54428 10.4599
head 13.7656 -3.67683 4.63976
rclavicle -5.72003e-014 -4.67144e-015
rhumerus -37.9373 -11.6584 -79.6225
rradius 35.8091
rwrist 4.26133
rhand -15.4015 9.35317
rfingers 7.12502
rthumb 10.7775 -20.3503
lclavicle -5.72003e-014 -4.67144e-015
lhumerus -34.6294 23.5277 67.8327
lradius 17.5361
lwrist -13.4625
lhand -19.1134 27.8108
lfingers 7.12502
lthumb 7.19568 57.6685
rfemur -3.76755 4.12137 16.3213
rtibia 47.2018
rfoot -18.7226 6.40378
rtoes -9.29184
lfemur -1.14769 -5.38246 -20.7948
ltibia 17.5746
lfoot -12.0228 -14.4754
ltoes -15.7061
1066
root -4.63196 17.744 11.1538 -9.68553 -49.3214 3.29027
lowerback 8.30946 1.22101 -3.85703
upperback -1.092 1.23699 0.149449
thorax -5.89839 0.738464 2.16113
lowerneck -22.4155 -6.79633 -12.5268
upperneck 26.4918 -8.62289 10.4472
head 13.7878 -3.72645 4.64263
rclavicle 9.90196e-015 -8.64713e-015
rhumerus -38.0336 -11.7241 -79.5898
rradius 35.4762
rwrist 4.40748
rhand -15.5327 9.54887
rfingers 7.12502
rthumb 10.651 -20.1612
lclavicle 9.90196e-015 -8.64713e-015
lhumerus -34.9368 23.4529 67.8029
lradius 17.7704
lwrist -13.0441
lhand -19.3411 27.8658
lfingers 7.12502
lthumb 6.97588 57.7309
rfemur -3.18291 4.43715 16.4559
rtibia 46.7107
rfoot -18.5332 7.04338
rtoes -9.62978
lfemur -1.3035 -5.34358 -20.6027
ltibia 17.721
lfoot -12.0361 -14.7976
ltoes -15.847
1067
root -4.63526 17.7367 11.1082 -9.6151 -49.0729 3.12898
lowerback 8.25416 1.28139 -3.81931
upperback -1.0924 1.32214 0.120639
thorax -5.87146 0.778187 2.09908
lowerneck -22.4219 -6.85347 -12.6262
upperneck 26.4513 -8.66208 10.4504
head 13.7837 -3.75197 4.65146
rclavicle -3.01842e-014 -8.05078e-015
rhumerus -37.9929 -11.8392 -79.5741
rradius 35.0265
rwrist 4.70063
rhand -15.5993 9.56708
rfingers 7.12502
rthumb 10.5867 -20.1463
lclavicle -3.01842e-014 -8.05078e-015
lhumerus -35.1491 23.3507 67.8138
lradius 18.0251
lwrist -12.7692
lhand -19.433 27.7987
lfingers 7.12502
lthumb 6.8872 57.6667
rfemur -2.56006 4.70782 16.6436
rtibia 46.1428
rfoot -18.2187 7.57209
rtoes -9.47787
lfemur -1.48609 -5.44571 -20.372
ltibia 17.9205
lfoot -12.1448 -14.934
ltoes -16.6277
